<svg xmlns="http://www.w3.org/2000/svg" width="660" height="510" viewBox="0 0 660 510"><rect width="660" height="510" rx="10" fill="#102b28"/><g font-family="Consolas,monospace"><text x="30" y="37" font-size="12" fill="#dafa8b">ARRAY / inputBuffer</text><text x="630" y="37" text-anchor="end" font-size="11" fill="#acbdb3">GRBG · 13.0b</text><path d="M0 56H660" stroke="#365148"/><text x="30" y="86" fill="#acbdb3" font-size="11">VIEW ROI  ·  inspect the neighborhood</text><rect x="30" y="104" width="73" height="50" fill="#335641"/><text x="66" y="127" text-anchor="middle" fill="#ecf3e5" font-size="13">700</text><text x="66" y="144" text-anchor="middle" fill="#bacbc0" font-size="9">Gr</text><rect x="105" y="104" width="73" height="50" fill="#673c2a"/><text x="141" y="127" text-anchor="middle" fill="#ecf3e5" font-size="13">711</text><text x="141" y="144" text-anchor="middle" fill="#bacbc0" font-size="9">R</text><rect x="180" y="104" width="73" height="50" fill="#335641"/><text x="216" y="127" text-anchor="middle" fill="#ecf3e5" font-size="13">722</text><text x="216" y="144" text-anchor="middle" fill="#bacbc0" font-size="9">Gr</text><rect x="255" y="104" width="73" height="50" fill="#673c2a"/><text x="291" y="127" text-anchor="middle" fill="#ecf3e5" font-size="13">733</text><text x="291" y="144" text-anchor="middle" fill="#bacbc0" font-size="9">R</text><rect x="330" y="104" width="73" height="50" fill="#335641"/><text x="366" y="127" text-anchor="middle" fill="#ecf3e5" font-size="13">744</text><text x="366" y="144" text-anchor="middle" fill="#bacbc0" font-size="9">Gr</text><rect x="405" y="104" width="73" height="50" fill="#673c2a"/><text x="441" y="127" text-anchor="middle" fill="#ecf3e5" font-size="13">755</text><text x="441" y="144" text-anchor="middle" fill="#bacbc0" font-size="9">R</text><rect x="480" y="104" width="73" height="50" fill="#335641"/><text x="516" y="127" text-anchor="middle" fill="#ecf3e5" font-size="13">766</text><text x="516" y="144" text-anchor="middle" fill="#bacbc0" font-size="9">Gr</text><rect x="555" y="104" width="73" height="50" fill="#673c2a"/><text x="591" y="127" text-anchor="middle" fill="#ecf3e5" font-size="13">777</text><text x="591" y="144" text-anchor="middle" fill="#bacbc0" font-size="9">R</text><rect x="30" y="156" width="73" height="50" fill="#263f5c"/><text x="66" y="179" text-anchor="middle" fill="#ecf3e5" font-size="13">797</text><text x="66" y="196" text-anchor="middle" fill="#bacbc0" font-size="9">B</text><rect x="105" y="156" width="73" height="50" fill="#335641"/><text x="141" y="179" text-anchor="middle" fill="#ecf3e5" font-size="13">808</text><text x="141" y="196" text-anchor="middle" fill="#bacbc0" font-size="9">Gb</text><rect x="180" y="156" width="73" height="50" fill="#263f5c"/><text x="216" y="179" text-anchor="middle" fill="#ecf3e5" font-size="13">819</text><text x="216" y="196" text-anchor="middle" fill="#bacbc0" font-size="9">B</text><rect x="255" y="156" width="73" height="50" fill="#335641"/><text x="291" y="179" text-anchor="middle" fill="#ecf3e5" font-size="13">830</text><text x="291" y="196" text-anchor="middle" fill="#bacbc0" font-size="9">Gb</text><rect x="330" y="156" width="73" height="50" fill="#263f5c"/><text x="366" y="179" text-anchor="middle" fill="#ecf3e5" font-size="13">841</text><text x="366" y="196" text-anchor="middle" fill="#bacbc0" font-size="9">B</text><rect x="405" y="156" width="73" height="50" fill="#335641"/><text x="441" y="179" text-anchor="middle" fill="#ecf3e5" font-size="13">852</text><text x="441" y="196" text-anchor="middle" fill="#bacbc0" font-size="9">Gb</text><rect x="480" y="156" width="73" height="50" fill="#263f5c"/><text x="516" y="179" text-anchor="middle" fill="#ecf3e5" font-size="13">863</text><text x="516" y="196" text-anchor="middle" fill="#bacbc0" font-size="9">B</text><rect x="555" y="156" width="73" height="50" fill="#335641"/><text x="591" y="179" text-anchor="middle" fill="#ecf3e5" font-size="13">874</text><text x="591" y="196" text-anchor="middle" fill="#bacbc0" font-size="9">Gb</text><rect x="30" y="208" width="73" height="50" fill="#335641"/><text x="66" y="231" text-anchor="middle" fill="#ecf3e5" font-size="13">894</text><text x="66" y="248" text-anchor="middle" fill="#bacbc0" font-size="9">Gr</text><rect x="105" y="208" width="73" height="50" fill="#673c2a"/><text x="141" y="231" text-anchor="middle" fill="#ecf3e5" font-size="13">905</text><text x="141" y="248" text-anchor="middle" fill="#bacbc0" font-size="9">R</text><rect x="180" y="208" width="73" height="50" fill="#335641"/><text x="216" y="231" text-anchor="middle" fill="#ecf3e5" font-size="13">916</text><text x="216" y="248" text-anchor="middle" fill="#bacbc0" font-size="9">Gr</text><rect x="255" y="208" width="73" height="50" fill="#673c2a"/><text x="291" y="231" text-anchor="middle" fill="#ecf3e5" font-size="13">927</text><text x="291" y="248" text-anchor="middle" fill="#bacbc0" font-size="9">R</text><rect x="330" y="208" width="73" height="50" fill="#335641"/><text x="366" y="231" text-anchor="middle" fill="#ecf3e5" font-size="13">938</text><text x="366" y="248" text-anchor="middle" fill="#bacbc0" font-size="9">Gr</text><rect x="405" y="208" width="73" height="50" fill="#673c2a"/><text x="441" y="231" text-anchor="middle" fill="#ecf3e5" font-size="13">949</text><text x="441" y="248" text-anchor="middle" fill="#bacbc0" font-size="9">R</text><rect x="480" y="208" width="73" height="50" fill="#335641"/><text x="516" y="231" text-anchor="middle" fill="#ecf3e5" font-size="13">960</text><text x="516" y="248" text-anchor="middle" fill="#bacbc0" font-size="9">Gr</text><rect x="555" y="208" width="73" height="50" fill="#673c2a"/><text x="591" y="231" text-anchor="middle" fill="#ecf3e5" font-size="13">971</text><text x="591" y="248" text-anchor="middle" fill="#bacbc0" font-size="9">R</text><rect x="30" y="260" width="73" height="50" fill="#263f5c"/><text x="66" y="283" text-anchor="middle" fill="#ecf3e5" font-size="13">991</text><text x="66" y="300" text-anchor="middle" fill="#bacbc0" font-size="9">B</text><rect x="105" y="260" width="73" height="50" fill="#335641"/><text x="141" y="283" text-anchor="middle" fill="#ecf3e5" font-size="13">1002</text><text x="141" y="300" text-anchor="middle" fill="#bacbc0" font-size="9">Gb</text><rect x="180" y="260" width="73" height="50" fill="#263f5c"/><text x="216" y="283" text-anchor="middle" fill="#ecf3e5" font-size="13">1013</text><text x="216" y="300" text-anchor="middle" fill="#bacbc0" font-size="9">B</text><rect x="255" y="260" width="73" height="50" fill="#335641"/><text x="291" y="283" text-anchor="middle" fill="#ecf3e5" font-size="13">1024</text><text x="291" y="300" text-anchor="middle" fill="#bacbc0" font-size="9">Gb</text><rect x="330" y="260" width="73" height="50" fill="#263f5c"/><text x="366" y="283" text-anchor="middle" fill="#ecf3e5" font-size="13">1035</text><text x="366" y="300" text-anchor="middle" fill="#bacbc0" font-size="9">B</text><rect x="405" y="260" width="73" height="50" fill="#335641"/><text x="441" y="283" text-anchor="middle" fill="#ecf3e5" font-size="13">1046</text><text x="441" y="300" text-anchor="middle" fill="#bacbc0" font-size="9">Gb</text><rect x="480" y="260" width="73" height="50" fill="#263f5c"/><text x="516" y="283" text-anchor="middle" fill="#ecf3e5" font-size="13">1057</text><text x="516" y="300" text-anchor="middle" fill="#bacbc0" font-size="9">B</text><rect x="555" y="260" width="73" height="50" fill="#335641"/><text x="591" y="283" text-anchor="middle" fill="#ecf3e5" font-size="13">1068</text><text x="591" y="300" text-anchor="middle" fill="#bacbc0" font-size="9">Gb</text><rect x="30" y="312" width="73" height="50" fill="#335641"/><text x="66" y="335" text-anchor="middle" fill="#ecf3e5" font-size="13">1088</text><text x="66" y="352" text-anchor="middle" fill="#bacbc0" font-size="9">Gr</text><rect x="105" y="312" width="73" height="50" fill="#673c2a"/><text x="141" y="335" text-anchor="middle" fill="#ecf3e5" font-size="13">1099</text><text x="141" y="352" text-anchor="middle" fill="#bacbc0" font-size="9">R</text><rect x="180" y="312" width="73" height="50" fill="#335641"/><text x="216" y="335" text-anchor="middle" fill="#ecf3e5" font-size="13">1110</text><text x="216" y="352" text-anchor="middle" fill="#bacbc0" font-size="9">Gr</text><rect x="255" y="312" width="73" height="50" fill="#673c2a"/><text x="291" y="335" text-anchor="middle" fill="#ecf3e5" font-size="13">1121</text><text x="291" y="352" text-anchor="middle" fill="#bacbc0" font-size="9">R</text><rect x="330" y="312" width="73" height="50" fill="#335641"/><text x="366" y="335" text-anchor="middle" fill="#ecf3e5" font-size="13">1132</text><text x="366" y="352" text-anchor="middle" fill="#bacbc0" font-size="9">Gr</text><rect x="405" y="312" width="73" height="50" fill="#673c2a"/><text x="441" y="335" text-anchor="middle" fill="#ecf3e5" font-size="13">1143</text><text x="441" y="352" text-anchor="middle" fill="#bacbc0" font-size="9">R</text><rect x="480" y="312" width="73" height="50" fill="#335641"/><text x="516" y="335" text-anchor="middle" fill="#ecf3e5" font-size="13">1154</text><text x="516" y="352" text-anchor="middle" fill="#bacbc0" font-size="9">Gr</text><rect x="555" y="312" width="73" height="50" fill="#673c2a"/><text x="591" y="335" text-anchor="middle" fill="#ecf3e5" font-size="13">1165</text><text x="591" y="352" text-anchor="middle" fill="#bacbc0" font-size="9">R</text><rect x="30" y="364" width="73" height="50" fill="#263f5c"/><text x="66" y="387" text-anchor="middle" fill="#ecf3e5" font-size="13">1185</text><text x="66" y="404" text-anchor="middle" fill="#bacbc0" font-size="9">B</text><rect x="105" y="364" width="73" height="50" fill="#335641"/><text x="141" y="387" text-anchor="middle" fill="#ecf3e5" font-size="13">1196</text><text x="141" y="404" text-anchor="middle" fill="#bacbc0" font-size="9">Gb</text><rect x="180" y="364" width="73" height="50" fill="#263f5c"/><text x="216" y="387" text-anchor="middle" fill="#ecf3e5" font-size="13">1207</text><text x="216" y="404" text-anchor="middle" fill="#bacbc0" font-size="9">B</text><rect x="255" y="364" width="73" height="50" fill="#335641"/><text x="291" y="387" text-anchor="middle" fill="#ecf3e5" font-size="13">1218</text><text x="291" y="404" text-anchor="middle" fill="#bacbc0" font-size="9">Gb</text><rect x="330" y="364" width="73" height="50" fill="#263f5c"/><text x="366" y="387" text-anchor="middle" fill="#ecf3e5" font-size="13">1229</text><text x="366" y="404" text-anchor="middle" fill="#bacbc0" font-size="9">B</text><rect x="405" y="364" width="73" height="50" fill="#335641"/><text x="441" y="387" text-anchor="middle" fill="#ecf3e5" font-size="13">1240</text><text x="441" y="404" text-anchor="middle" fill="#bacbc0" font-size="9">Gb</text><rect x="480" y="364" width="73" height="50" fill="#263f5c"/><text x="516" y="387" text-anchor="middle" fill="#ecf3e5" font-size="13">1251</text><text x="516" y="404" text-anchor="middle" fill="#bacbc0" font-size="9">B</text><rect x="555" y="364" width="73" height="50" fill="#335641"/><text x="591" y="387" text-anchor="middle" fill="#ecf3e5" font-size="13">1262</text><text x="591" y="404" text-anchor="middle" fill="#bacbc0" font-size="9">Gb</text><rect x="105" y="104" width="373" height="258" fill="none" stroke="#f1a564" stroke-width="2"/><rect x="255" y="208" width="73" height="50" fill="none" stroke="#dafa8b" stroke-width="3"/><path d="M292 258V435H435" fill="none" stroke="#dafa8b"/><text x="447" y="438" fill="#dafa8b" font-size="11">Selected pixel</text><text x="30" y="465" fill="#f1a564" font-size="11">KERNEL 5 × 5</text><text x="30" y="489" fill="#acbdb3" font-size="10">FULL-FRAME COORDINATES. ORIGINAL RAW VALUES.</text></g></svg>
